<mxfile host="app.diagrams.net" agent="Mozilla/5.0 (X11; Linux x86_64) AppleWebKit/537.36 (KHTML, like Gecko) Chrome/130.0.0.0 Safari/537.36" version="24.8.4">
  <diagram name="PÃ gina-1" id="LbVerQ4kLHdDsUL7OnN9">
    <mxGraphModel dx="839" dy="1209" grid="0" gridSize="10" guides="1" tooltips="1" connect="1" arrows="1" fold="1" page="0" pageScale="1" pageWidth="827" pageHeight="1169" math="0" shadow="0">
      <root>
        <mxCell id="0" />
        <mxCell id="1" parent="0" />
        <mxCell id="pjNHUrydd99h5L4wFalr-1" value="" style="edgeStyle=none;curved=1;rounded=0;orthogonalLoop=1;jettySize=auto;html=1;fontSize=12;startSize=8;endSize=8;exitX=0.5;exitY=1;exitDx=0;exitDy=0;entryX=0.5;entryY=0;entryDx=0;entryDy=0;endArrow=none;endFill=0;strokeWidth=2;" edge="1" parent="1" source="pjNHUrydd99h5L4wFalr-10" target="pjNHUrydd99h5L4wFalr-7">
          <mxGeometry relative="1" as="geometry" />
        </mxCell>
        <mxCell id="pjNHUrydd99h5L4wFalr-2" value="" style="edgeStyle=none;curved=1;rounded=0;orthogonalLoop=1;jettySize=auto;html=1;fontSize=12;startSize=8;endSize=8;exitX=1;exitY=1;exitDx=0;exitDy=0;entryX=0.5;entryY=0;entryDx=0;entryDy=0;endArrow=none;endFill=0;strokeWidth=2;" edge="1" parent="1" source="pjNHUrydd99h5L4wFalr-10" target="pjNHUrydd99h5L4wFalr-16">
          <mxGeometry relative="1" as="geometry" />
        </mxCell>
        <mxCell id="pjNHUrydd99h5L4wFalr-3" style="edgeStyle=none;curved=1;rounded=0;orthogonalLoop=1;jettySize=auto;html=1;exitX=0.5;exitY=1;exitDx=0;exitDy=0;entryX=0.5;entryY=0;entryDx=0;entryDy=0;fontSize=12;startSize=8;endSize=8;endArrow=none;endFill=0;strokeWidth=2;" edge="1" parent="1" source="pjNHUrydd99h5L4wFalr-4" target="pjNHUrydd99h5L4wFalr-10">
          <mxGeometry relative="1" as="geometry" />
        </mxCell>
        <mxCell id="pjNHUrydd99h5L4wFalr-4" value="Arrel" style="rhombus;whiteSpace=wrap;html=1;fillColor=#999999;strokeColor=#000000;fontColor=#FFFFFF;fontStyle=1" vertex="1" parent="1">
          <mxGeometry x="147.5" y="-121" width="65" height="60" as="geometry" />
        </mxCell>
        <mxCell id="pjNHUrydd99h5L4wFalr-5" value="" style="edgeStyle=none;curved=1;rounded=0;orthogonalLoop=1;jettySize=auto;html=1;fontSize=12;startSize=8;endSize=8;entryX=0.5;entryY=0;entryDx=0;entryDy=0;exitX=0.5;exitY=1;exitDx=0;exitDy=0;endArrow=none;endFill=0;strokeWidth=2;" edge="1" parent="1" source="pjNHUrydd99h5L4wFalr-7" target="pjNHUrydd99h5L4wFalr-12">
          <mxGeometry relative="1" as="geometry">
            <mxPoint x="-67" y="233" as="targetPoint" />
          </mxGeometry>
        </mxCell>
        <mxCell id="pjNHUrydd99h5L4wFalr-6" style="edgeStyle=none;curved=1;rounded=0;orthogonalLoop=1;jettySize=auto;html=1;entryX=0.5;entryY=0;entryDx=0;entryDy=0;fontSize=12;startSize=8;endSize=8;exitX=0.5;exitY=1;exitDx=0;exitDy=0;endArrow=none;endFill=0;strokeWidth=2;" edge="1" parent="1" source="pjNHUrydd99h5L4wFalr-7" target="pjNHUrydd99h5L4wFalr-14">
          <mxGeometry relative="1" as="geometry" />
        </mxCell>
        <mxCell id="pjNHUrydd99h5L4wFalr-39" style="edgeStyle=none;curved=1;rounded=0;orthogonalLoop=1;jettySize=auto;html=1;exitX=1;exitY=0.5;exitDx=0;exitDy=0;entryX=0;entryY=0.5;entryDx=0;entryDy=0;fontSize=12;startSize=8;endSize=8;endArrow=none;endFill=0;strokeWidth=2;" edge="1" parent="1" source="pjNHUrydd99h5L4wFalr-7" target="pjNHUrydd99h5L4wFalr-36">
          <mxGeometry relative="1" as="geometry" />
        </mxCell>
        <mxCell id="pjNHUrydd99h5L4wFalr-7" value="professor" style="ellipse;whiteSpace=wrap;html=1;" vertex="1" parent="1">
          <mxGeometry x="24" y="136" width="80" height="28.5" as="geometry" />
        </mxCell>
        <mxCell id="pjNHUrydd99h5L4wFalr-8" style="edgeStyle=none;curved=1;rounded=0;orthogonalLoop=1;jettySize=auto;html=1;entryX=0.5;entryY=0;entryDx=0;entryDy=0;fontSize=12;startSize=8;endSize=8;exitX=0;exitY=1;exitDx=0;exitDy=0;endArrow=none;endFill=0;strokeWidth=2;" edge="1" parent="1" source="pjNHUrydd99h5L4wFalr-10" target="pjNHUrydd99h5L4wFalr-18">
          <mxGeometry relative="1" as="geometry" />
        </mxCell>
        <mxCell id="pjNHUrydd99h5L4wFalr-10" value="classe" style="ellipse;whiteSpace=wrap;html=1;" vertex="1" parent="1">
          <mxGeometry x="140" y="-16" width="80" height="41" as="geometry" />
        </mxCell>
        <mxCell id="pjNHUrydd99h5L4wFalr-11" style="edgeStyle=none;curved=1;rounded=0;orthogonalLoop=1;jettySize=auto;html=1;exitX=0.5;exitY=1;exitDx=0;exitDy=0;entryX=0.5;entryY=0;entryDx=0;entryDy=0;fontSize=12;startSize=8;endSize=8;endArrow=none;endFill=0;strokeWidth=2;" edge="1" parent="1" source="pjNHUrydd99h5L4wFalr-12" target="pjNHUrydd99h5L4wFalr-28">
          <mxGeometry relative="1" as="geometry" />
        </mxCell>
        <mxCell id="pjNHUrydd99h5L4wFalr-12" value="nom" style="ellipse;whiteSpace=wrap;html=1;" vertex="1" parent="1">
          <mxGeometry x="-18" y="240" width="80" height="28.5" as="geometry" />
        </mxCell>
        <mxCell id="pjNHUrydd99h5L4wFalr-13" style="edgeStyle=none;curved=1;rounded=0;orthogonalLoop=1;jettySize=auto;html=1;exitX=0.5;exitY=1;exitDx=0;exitDy=0;entryX=0.5;entryY=0;entryDx=0;entryDy=0;fontSize=12;startSize=8;endSize=8;endArrow=none;endFill=0;strokeWidth=2;" edge="1" parent="1" source="pjNHUrydd99h5L4wFalr-14" target="pjNHUrydd99h5L4wFalr-29">
          <mxGeometry relative="1" as="geometry" />
        </mxCell>
        <mxCell id="pjNHUrydd99h5L4wFalr-14" value="cognoms" style="ellipse;whiteSpace=wrap;html=1;" vertex="1" parent="1">
          <mxGeometry x="77" y="240" width="80" height="28.5" as="geometry" />
        </mxCell>
        <mxCell id="pjNHUrydd99h5L4wFalr-15" style="edgeStyle=none;curved=1;rounded=0;orthogonalLoop=1;jettySize=auto;html=1;exitX=0.5;exitY=1;exitDx=0;exitDy=0;entryX=0.5;entryY=0;entryDx=0;entryDy=0;fontSize=12;startSize=8;endSize=8;endArrow=none;endFill=0;strokeWidth=2;" edge="1" parent="1" source="pjNHUrydd99h5L4wFalr-16" target="pjNHUrydd99h5L4wFalr-22">
          <mxGeometry relative="1" as="geometry" />
        </mxCell>
        <mxCell id="pjNHUrydd99h5L4wFalr-16" value="alumnes" style="ellipse;whiteSpace=wrap;html=1;" vertex="1" parent="1">
          <mxGeometry x="328" y="136" width="80" height="28.5" as="geometry" />
        </mxCell>
        <mxCell id="pjNHUrydd99h5L4wFalr-17" style="edgeStyle=none;curved=1;rounded=0;orthogonalLoop=1;jettySize=auto;html=1;exitX=0.5;exitY=1;exitDx=0;exitDy=0;entryX=0.5;entryY=0;entryDx=0;entryDy=0;fontSize=12;startSize=8;endSize=8;endArrow=none;endFill=0;strokeWidth=2;" edge="1" parent="1" source="pjNHUrydd99h5L4wFalr-18" target="pjNHUrydd99h5L4wFalr-32">
          <mxGeometry relative="1" as="geometry" />
        </mxCell>
        <mxCell id="pjNHUrydd99h5L4wFalr-18" value="assignatura" style="ellipse;whiteSpace=wrap;html=1;" vertex="1" parent="1">
          <mxGeometry x="-154" y="136" width="80" height="28.5" as="geometry" />
        </mxCell>
        <mxCell id="pjNHUrydd99h5L4wFalr-22" value="alumne" style="ellipse;whiteSpace=wrap;html=1;" vertex="1" parent="1">
          <mxGeometry x="239" y="240" width="80" height="28.5" as="geometry" />
        </mxCell>
        <mxCell id="pjNHUrydd99h5L4wFalr-24" value="alumne" style="ellipse;whiteSpace=wrap;html=1;" vertex="1" parent="1">
          <mxGeometry x="398" y="240" width="80" height="28.5" as="geometry" />
        </mxCell>
        <mxCell id="pjNHUrydd99h5L4wFalr-25" style="edgeStyle=none;curved=1;rounded=0;orthogonalLoop=1;jettySize=auto;html=1;exitX=0.5;exitY=1;exitDx=0;exitDy=0;entryX=0.5;entryY=0;entryDx=0;entryDy=0;fontSize=12;startSize=8;endSize=8;endArrow=none;endFill=0;strokeWidth=2;" edge="1" parent="1" source="pjNHUrydd99h5L4wFalr-16" target="pjNHUrydd99h5L4wFalr-24">
          <mxGeometry relative="1" as="geometry" />
        </mxCell>
        <mxCell id="pjNHUrydd99h5L4wFalr-28" value="Marcel" style="rounded=0;whiteSpace=wrap;html=1;" vertex="1" parent="1">
          <mxGeometry x="-13.5" y="335" width="71" height="32" as="geometry" />
        </mxCell>
        <mxCell id="pjNHUrydd99h5L4wFalr-29" value="Puig" style="rounded=0;whiteSpace=wrap;html=1;" vertex="1" parent="1">
          <mxGeometry x="69.75" y="335" width="90.5" height="32" as="geometry" />
        </mxCell>
        <mxCell id="pjNHUrydd99h5L4wFalr-32" value="Llenguatges de marques" style="rounded=0;whiteSpace=wrap;html=1;" vertex="1" parent="1">
          <mxGeometry x="-154.5" y="238.25" width="80.5" height="32" as="geometry" />
        </mxCell>
        <mxCell id="pjNHUrydd99h5L4wFalr-36" value="Especialitat=507" style="rounded=1;whiteSpace=wrap;html=1;" vertex="1" parent="1">
          <mxGeometry x="136" y="134.75" width="93" height="31" as="geometry" />
        </mxCell>
        <mxCell id="pjNHUrydd99h5L4wFalr-40" value="" style="edgeStyle=none;curved=1;rounded=0;orthogonalLoop=1;jettySize=auto;html=1;fontSize=12;startSize=8;endSize=8;entryX=0.5;entryY=0;entryDx=0;entryDy=0;exitX=0.5;exitY=1;exitDx=0;exitDy=0;endArrow=none;endFill=0;strokeWidth=2;" edge="1" parent="1" target="pjNHUrydd99h5L4wFalr-43" source="pjNHUrydd99h5L4wFalr-22">
          <mxGeometry relative="1" as="geometry">
            <mxPoint x="134" y="458" as="targetPoint" />
            <mxPoint x="235" y="390" as="sourcePoint" />
          </mxGeometry>
        </mxCell>
        <mxCell id="pjNHUrydd99h5L4wFalr-41" style="edgeStyle=none;curved=1;rounded=0;orthogonalLoop=1;jettySize=auto;html=1;entryX=0.5;entryY=0;entryDx=0;entryDy=0;fontSize=12;startSize=8;endSize=8;exitX=0.5;exitY=1;exitDx=0;exitDy=0;endArrow=none;endFill=0;strokeWidth=2;" edge="1" parent="1" target="pjNHUrydd99h5L4wFalr-45" source="pjNHUrydd99h5L4wFalr-22">
          <mxGeometry relative="1" as="geometry">
            <mxPoint x="235" y="390" as="sourcePoint" />
          </mxGeometry>
        </mxCell>
        <mxCell id="pjNHUrydd99h5L4wFalr-42" style="edgeStyle=none;curved=1;rounded=0;orthogonalLoop=1;jettySize=auto;html=1;exitX=0.5;exitY=1;exitDx=0;exitDy=0;entryX=0.5;entryY=0;entryDx=0;entryDy=0;fontSize=12;startSize=8;endSize=8;endArrow=none;endFill=0;strokeWidth=2;" edge="1" parent="1" source="pjNHUrydd99h5L4wFalr-43" target="pjNHUrydd99h5L4wFalr-46">
          <mxGeometry relative="1" as="geometry" />
        </mxCell>
        <mxCell id="pjNHUrydd99h5L4wFalr-43" value="nom" style="ellipse;whiteSpace=wrap;html=1;" vertex="1" parent="1">
          <mxGeometry x="189" y="336.75" width="80" height="28.5" as="geometry" />
        </mxCell>
        <mxCell id="pjNHUrydd99h5L4wFalr-44" style="edgeStyle=none;curved=1;rounded=0;orthogonalLoop=1;jettySize=auto;html=1;exitX=0.5;exitY=1;exitDx=0;exitDy=0;entryX=0.5;entryY=0;entryDx=0;entryDy=0;fontSize=12;startSize=8;endSize=8;endArrow=none;endFill=0;strokeWidth=2;" edge="1" parent="1" source="pjNHUrydd99h5L4wFalr-45" target="pjNHUrydd99h5L4wFalr-47">
          <mxGeometry relative="1" as="geometry" />
        </mxCell>
        <mxCell id="pjNHUrydd99h5L4wFalr-45" value="cognoms" style="ellipse;whiteSpace=wrap;html=1;" vertex="1" parent="1">
          <mxGeometry x="282" y="336.75" width="80" height="28.5" as="geometry" />
        </mxCell>
        <mxCell id="pjNHUrydd99h5L4wFalr-46" value="Frederic" style="rounded=0;whiteSpace=wrap;html=1;" vertex="1" parent="1">
          <mxGeometry x="193.5" y="434" width="71" height="32" as="geometry" />
        </mxCell>
        <mxCell id="pjNHUrydd99h5L4wFalr-47" value="Pi" style="rounded=0;whiteSpace=wrap;html=1;" vertex="1" parent="1">
          <mxGeometry x="305.87" y="434" width="32.25" height="32" as="geometry" />
        </mxCell>
        <mxCell id="pjNHUrydd99h5L4wFalr-56" value="" style="edgeStyle=none;curved=1;rounded=0;orthogonalLoop=1;jettySize=auto;html=1;fontSize=12;startSize=8;endSize=8;entryX=0.5;entryY=0;entryDx=0;entryDy=0;exitX=0.5;exitY=1;exitDx=0;exitDy=0;endArrow=none;endFill=0;strokeWidth=2;" edge="1" parent="1" target="pjNHUrydd99h5L4wFalr-59" source="pjNHUrydd99h5L4wFalr-24">
          <mxGeometry relative="1" as="geometry">
            <mxPoint x="328" y="364" as="targetPoint" />
            <mxPoint x="429" y="296" as="sourcePoint" />
          </mxGeometry>
        </mxCell>
        <mxCell id="pjNHUrydd99h5L4wFalr-57" style="edgeStyle=none;curved=1;rounded=0;orthogonalLoop=1;jettySize=auto;html=1;entryX=0.5;entryY=0;entryDx=0;entryDy=0;fontSize=12;startSize=8;endSize=8;exitX=0.5;exitY=1;exitDx=0;exitDy=0;endArrow=none;endFill=0;strokeWidth=2;" edge="1" parent="1" target="pjNHUrydd99h5L4wFalr-61" source="pjNHUrydd99h5L4wFalr-24">
          <mxGeometry relative="1" as="geometry">
            <mxPoint x="429" y="296" as="sourcePoint" />
          </mxGeometry>
        </mxCell>
        <mxCell id="pjNHUrydd99h5L4wFalr-58" style="edgeStyle=none;curved=1;rounded=0;orthogonalLoop=1;jettySize=auto;html=1;exitX=0.5;exitY=1;exitDx=0;exitDy=0;entryX=0.5;entryY=0;entryDx=0;entryDy=0;fontSize=12;startSize=8;endSize=8;endArrow=none;endFill=0;strokeWidth=2;" edge="1" parent="1" source="pjNHUrydd99h5L4wFalr-59" target="pjNHUrydd99h5L4wFalr-62">
          <mxGeometry relative="1" as="geometry" />
        </mxCell>
        <mxCell id="pjNHUrydd99h5L4wFalr-59" value="nom" style="ellipse;whiteSpace=wrap;html=1;" vertex="1" parent="1">
          <mxGeometry x="368" y="336.75" width="80" height="28.5" as="geometry" />
        </mxCell>
        <mxCell id="pjNHUrydd99h5L4wFalr-60" style="edgeStyle=none;curved=1;rounded=0;orthogonalLoop=1;jettySize=auto;html=1;exitX=0.5;exitY=1;exitDx=0;exitDy=0;entryX=0.5;entryY=0;entryDx=0;entryDy=0;fontSize=12;startSize=8;endSize=8;endArrow=none;endFill=0;strokeWidth=2;" edge="1" parent="1" source="pjNHUrydd99h5L4wFalr-61" target="pjNHUrydd99h5L4wFalr-63">
          <mxGeometry relative="1" as="geometry" />
        </mxCell>
        <mxCell id="pjNHUrydd99h5L4wFalr-61" value="cognoms" style="ellipse;whiteSpace=wrap;html=1;" vertex="1" parent="1">
          <mxGeometry x="454" y="336.75" width="80" height="28.5" as="geometry" />
        </mxCell>
        <mxCell id="pjNHUrydd99h5L4wFalr-62" value="Filomeno" style="rounded=0;whiteSpace=wrap;html=1;" vertex="1" parent="1">
          <mxGeometry x="372.5" y="434" width="71" height="32" as="geometry" />
        </mxCell>
        <mxCell id="pjNHUrydd99h5L4wFalr-63" value="Garcia" style="rounded=0;whiteSpace=wrap;html=1;" vertex="1" parent="1">
          <mxGeometry x="464" y="434" width="60" height="32" as="geometry" />
        </mxCell>
        <mxCell id="pjNHUrydd99h5L4wFalr-64" value="NarcÃ­s Carol CostajussÃ " style="text;html=1;align=center;verticalAlign=middle;whiteSpace=wrap;rounded=0;fontSize=16;strokeColor=#82b366;strokeWidth=2;fillColor=#d5e8d4;" vertex="1" parent="1">
          <mxGeometry x="-107" y="-52" width="215" height="30" as="geometry" />
        </mxCell>
      </root>
    </mxGraphModel>
  </diagram>
</mxfile>
